<?xml version="1.0" encoding="utf-8"?>
<!-- Uploaded to: SVG Repo, www.svgrepo.com, Generator: SVG Repo Mixer Tools -->
<svg width="800px" height="800px" viewBox="0 0 64 64" xmlns="http://www.w3.org/2000/svg">
<title>pray-day</title>
<g id="pray-day">
<circle cx="39.5" cy="27.5" r="21.5" style="fill:#e5efef"/>
<polygon points="58 61 6 61 12 43 52 43 58 61" style="fill:#fc8c29;stroke:#4c241d;stroke-linecap:round;stroke-linejoin:round;stroke-width:2px"/>
<circle cx="13" cy="27" r="1" style="fill:#4c241d"/>
<path d="M38.243,43.029H33.471l.4-4.587a9.378,9.378,0,0,0-.187-2.855L32,28l-2-9-5-3L21.273,40.311,21,43.994a5.594,5.594,0,0,0,5.23,5.582L33,50,15,53l-3.029,3H38.515A6.485,6.485,0,0,0,45,49.315,6.666,6.666,0,0,0,38.243,43.029Z" style="fill:#6b4f5b;stroke:#4c241d;stroke-linecap:round;stroke-linejoin:round;stroke-width:2px"/>
<line x1="52" y1="7" x2="52" y2="10" style="fill:none;stroke:#4c241d;stroke-linecap:round;stroke-linejoin:round;stroke-width:2px"/>
<line x1="52" y1="14" x2="52" y2="17" style="fill:none;stroke:#4c241d;stroke-linecap:round;stroke-linejoin:round;stroke-width:2px"/>
<line x1="50" y1="12" x2="47" y2="12" style="fill:none;stroke:#4c241d;stroke-linecap:round;stroke-linejoin:round;stroke-width:2px"/>
<line x1="57" y1="12" x2="54" y2="12" style="fill:none;stroke:#4c241d;stroke-linecap:round;stroke-linejoin:round;stroke-width:2px"/>
<circle cx="43" cy="4" r="1" style="fill:#4c241d"/>
<path d="M28.59,18.911l4.823-1.234-1.838-8.45a5.355,5.355,0,0,0-6.3-3.857h0a5.042,5.042,0,0,0-3.54,6.186L22.893,16.2a4.093,4.093,0,0,0,1.7,2.435" style="fill:#e7d1c4;stroke:#4c241d;stroke-linecap:round;stroke-linejoin:round;stroke-width:2px"/>
<path d="M21.9,4.094h7.23A2.071,2.071,0,0,1,31.2,6.166V9.094a0,0,0,0,1,0,0H19.833a0,0,0,0,1,0,0V6.166A2.071,2.071,0,0,1,21.9,4.094Z" transform="translate(-0.792 5.037) rotate(-11.102)" style="fill:#6b4f5b;stroke:#4c241d;stroke-linecap:round;stroke-linejoin:round;stroke-width:2px"/>
<path d="M43.559,29.463l-6.5,3.035-5.707-7.836c-1.039-1.426-2.786-1.923-3.9-1.11h0c-1.116.813-1.179,2.628-.14,4.054l6.09,8.361c1.451,1.992,3.891,2.686,5.45,1.551l6.421-4.677Z" style="fill:#6b4f5b;stroke:#4c241d;stroke-linecap:round;stroke-linejoin:round;stroke-width:2px"/>
<path d="M45.268,32.841l4.165-3.034a1.412,1.412,0,0,0-1.428-2.42l-4.446,2.076Z" style="fill:#e7d1c4;stroke:#4c241d;stroke-linecap:round;stroke-linejoin:round;stroke-width:2px"/>
<line x1="38" y1="50" x2="36" y2="50" style="fill:none;stroke:#4c241d;stroke-linecap:round;stroke-linejoin:round;stroke-width:2px"/>
<line x1="60" y1="52" x2="55" y2="52" style="fill:none;stroke:#4c241d;stroke-linecap:round;stroke-linejoin:round;stroke-width:2px"/>
<line x1="63" y1="61" x2="58" y2="61" style="fill:none;stroke:#4c241d;stroke-linecap:round;stroke-linejoin:round;stroke-width:2px"/>
<line x1="56" y1="43" x2="52" y2="43" style="fill:none;stroke:#4c241d;stroke-linecap:round;stroke-linejoin:round;stroke-width:2px"/>
<line x1="4" y1="52" x2="9" y2="52" style="fill:none;stroke:#4c241d;stroke-linecap:round;stroke-linejoin:round;stroke-width:2px"/>
<line x1="1" y1="61" x2="6" y2="61" style="fill:none;stroke:#4c241d;stroke-linecap:round;stroke-linejoin:round;stroke-width:2px"/>
<line x1="8" y1="43" x2="12" y2="43" style="fill:none;stroke:#4c241d;stroke-linecap:round;stroke-linejoin:round;stroke-width:2px"/>
</g>
</svg>